<svg viewBox="0 0 64 64" xmlns="http://www.w3.org/2000/svg">
  <defs>
    <linearGradient id="at-bark" x1="0%" y1="0%" x2="100%" y2="0%">
      <stop offset="0%" style="stop-color:#3e2723"/>
      <stop offset="50%" style="stop-color:#6d4c41"/>
      <stop offset="100%" style="stop-color:#3e2723"/>
    </linearGradient>
    <radialGradient id="at-leaves" cx="50%" cy="45%" r="50%">
      <stop offset="0%" style="stop-color:#66bb6a"/>
      <stop offset="60%" style="stop-color:#388e3c"/>
      <stop offset="100%" style="stop-color:#1b5e20"/>
    </radialGradient>
    <radialGradient id="at-apple" cx="35%" cy="30%" r="60%">
      <stop offset="0%" style="stop-color:#ef9a9a"/>
      <stop offset="100%" style="stop-color:#c62828"/>
    </radialGradient>
  </defs>
  <path d="M29 62 Q32 59 35 62 L34 40 Q32 38 30 40 Z" fill="url(#at-bark)"/>
  <path d="M26 60 Q18 63 16 61 M38 60 Q46 63 48 61" fill="none" stroke="#4e342e" stroke-width="2"/>
  <circle cx="32" cy="26" r="19" fill="url(#at-leaves)"/>
  <circle cx="18" cy="31" r="11" fill="url(#at-leaves)"/>
  <circle cx="46" cy="31" r="11" fill="url(#at-leaves)"/>
  <circle cx="32" cy="13" r="9" fill="url(#at-leaves)"/>
  <path d="M24 14 Q32 9 40 14" fill="none" stroke="#a5d6a7" stroke-width="1" opacity="0.5"/>
  <circle cx="24" cy="30" r="3.5" fill="url(#at-apple)"/>
  <circle cx="40" cy="28" r="3" fill="url(#at-apple)"/>
  <circle cx="32" cy="35" r="3" fill="url(#at-apple)"/>
  <line x1="24" y1="27" x2="23" y2="24" stroke="#2e7d32" stroke-width="0.8"/>
  <line x1="40" y1="25" x2="40" y2="22" stroke="#2e7d32" stroke-width="0.8"/>
</svg>
