<svg width="200" height="180" viewBox="0 0 200 180" xmlns="http://www.w3.org/2000/svg">
  <defs>
    <linearGradient id="smith-wall" x1="30" y1="55" x2="170" y2="165" gradientUnits="userSpaceOnUse">
      <stop offset="0" stop-color="#607d8b"/>
      <stop offset="1" stop-color="#263238"/>
    </linearGradient>
    <radialGradient id="forge-glow" cx="50%" cy="65%" r="50%">
      <stop offset="0" stop-color="#ff7043" stop-opacity="0.85"/>
      <stop offset="1" stop-color="#ff7043" stop-opacity="0"/>
    </radialGradient>
  </defs>
  <ellipse cx="100" cy="164" rx="72" ry="8" fill="#050808" opacity="0.28"/>
  <path d="M30 160 L170 160 L170 60 L100 20 L30 60 Z" fill="url(#smith-wall)" stroke="#263238" stroke-width="4"/>
  <path d="M22 64 L100 16 L178 64 L165 73 L100 38 L35 73 Z" fill="#37474f" stroke="#1c2529" stroke-width="4" stroke-linejoin="round"/>
  <rect x="139" y="20" width="22" height="50" fill="#263238" stroke="#141b1f" stroke-width="2"/>
  <path d="M136 20 H164 L158 10 H142 Z" fill="#455a64" stroke="#141b1f" stroke-width="2"/>
  <circle cx="100" cy="130" r="42" fill="url(#forge-glow)"/>
  <rect x="68" y="99" width="64" height="61" rx="2" fill="#263238" stroke="#141b1f" stroke-width="3"/>
  <rect x="80" y="110" width="40" height="30" fill="#ff5722" opacity="0.8">
    <animate attributeName="opacity" values="0.85;0.45;0.85" dur="2s" repeatCount="indefinite" />
  </rect>
  <path d="M80 150 L120 150 L132 160 L68 160 Z" fill="#37474f" stroke="#1c2529" stroke-width="2"/>
  <path d="M44 86 H67 M51 86 V122 M48 122 H66" stroke="#b0bec5" stroke-width="3" stroke-linecap="round"/>
  <path d="M144 92 L161 120 M158 92 L142 120" stroke="#b0bec5" stroke-width="3" stroke-linecap="round"/>
</svg>
