<svg viewBox="0 0 64 64" xmlns="http://www.w3.org/2000/svg">
  <defs>
    <linearGradient id="st-rock" x1="0%" y1="0%" x2="100%" y2="0%">
      <stop offset="0%" style="stop-color:#37474f"/>
      <stop offset="50%" style="stop-color:#546e7a"/>
      <stop offset="100%" style="stop-color:#37474f"/>
    </linearGradient>
    <linearGradient id="st-drip" x1="0%" y1="0%" x2="0%" y2="100%">
      <stop offset="0%" style="stop-color:#80deea"/>
      <stop offset="100%" style="stop-color:#00acc1;stop-opacity:0.4"/>
    </linearGradient>
  </defs>
  <rect x="0" y="0" width="64" height="10" rx="0" fill="#263238"/>
  <path d="M8 10 Q10 0 12 0 L16 0 Q14 0 16 10 Z" fill="url(#st-rock)"/>
  <path d="M8 10 L12 42 Q14 48 16 10 Z" fill="url(#st-rock)"/>
  <path d="M20 10 Q22 0 25 0 L28 0 Q26 0 28 10 Z" fill="url(#st-rock)"/>
  <path d="M20 10 L24 56 Q26 62 28 10 Z" fill="url(#st-rock)"/>
  <path d="M33 10 Q35 0 38 0 L40 0 Q38 0 40 10 Z" fill="url(#st-rock)"/>
  <path d="M33 10 L37 36 Q38 40 40 10 Z" fill="url(#st-rock)"/>
  <path d="M44 10 Q46 0 50 0 L52 0 Q50 0 52 10 Z" fill="url(#st-rock)"/>
  <path d="M44 10 L48 50 Q50 58 52 10 Z" fill="url(#st-rock)"/>
  <g fill="url(#st-drip)" opacity="0.7">
    <ellipse cx="14" cy="42" rx="1.5" ry="3"/>
    <ellipse cx="24" cy="56" rx="1.5" ry="3.5"/>
    <ellipse cx="37" cy="36" rx="1.5" ry="2.5"/>
    <ellipse cx="48" cy="50" rx="1.5" ry="3"/>
  </g>
  <g fill="#80deea" opacity="0.5">
    <circle cx="14" cy="46" r="2"/>
    <circle cx="24" cy="61" r="2.5"/>
    <circle cx="37" cy="40" r="1.8"/>
    <circle cx="48" cy="54" r="2"/>
  </g>
</svg>
